<?xml version="1.0" encoding="UTF-8" standalone="no"?>
<svg
   version="1.1"
   id="Layer_1"
   x="0px"
   y="0px"
   width="100%"
   viewBox="0 0 512 512"
   enable-background="new 0 0 512 512"
   xml:space="preserve"
   sodipodi:docname="full-moon.svg"
   inkscape:export-filename="full-moon.svg"
   inkscape:export-xdpi="96"
   inkscape:export-ydpi="96"
   inkscape:version="1.3.2 (091e20e, 2023-11-25)"
   xmlns:inkscape="http://www.inkscape.org/namespaces/inkscape"
   xmlns:sodipodi="http://sodipodi.sourceforge.net/DTD/sodipodi-0.dtd"
   xmlns="http://www.w3.org/2000/svg"
   xmlns:svg="http://www.w3.org/2000/svg"><defs
   id="defs72" /><sodipodi:namedview
   id="namedview72"
   pagecolor="#ffffff"
   bordercolor="#000000"
   borderopacity="0.25"
   inkscape:showpageshadow="2"
   inkscape:pageopacity="0.0"
   inkscape:pagecheckerboard="0"
   inkscape:deskcolor="#d1d1d1"
   inkscape:zoom="0.921875"
   inkscape:cx="246.77966"
   inkscape:cy="242.98305"
   inkscape:window-width="1392"
   inkscape:window-height="891"
   inkscape:window-x="1626"
   inkscape:window-y="107"
   inkscape:window-maximized="0"
   inkscape:current-layer="Layer_1" />

<path
   fill="#f8f9fe"
   opacity="1"
   stroke="none"
   d="m 47.1633,308.99219 c -3.886757,-13.41516 -7.14497,-26.92447 -5.616429,-41.53195 3.19994,-0.461 5.865593,-0.52851 8.526863,-0.4491 16.081318,0.47967 31.364125,-2.78503 45.502644,-10.44351 3.875511,-2.09926 6.964992,-5.64966 10.870092,-8.54587 7.50901,0.67303 13.9601,-1.27988 19.95195,-4.77675 12.38184,-7.22607 21.79149,-17.45683 27.91648,-30.27272 5.02905,-10.52287 7.51065,-21.66252 2.04109,-33.01166 1.66432,-1.44038 3.21736,-2.68756 4.25045,-4.27347 4.06687,-6.24296 7.77556,-12.7263 11.99434,-18.86106 3.52599,-5.12732 7.57786,-9.89303 11.6988,-14.95437 2.09289,-1.38169 3.88386,-2.6279 6.03654,-3.91035 3.77614,-1.71602 7.04706,-3.84122 10.63072,-4.99556 12.92008,-4.16167 25.81839,-8.49601 38.96054,-11.83881 20.41753,-5.19334 37.06701,-15.7407 49.86315,-32.435444 8.58627,-11.20227 15.32229,-23.250892 17.20666,-37.525238 4.18668,-0.391132 8.36725,-0.933399 12.56287,-1.10403 1.85345,-0.07538 3.73752,0.602878 6.02258,1.441315 1.40961,13.819164 2.4043,27.136005 3.04511,40.507999 -6.37332,2.372444 -11.49008,5.914322 -14.65808,11.636508 -2.21222,3.9959 -3.56202,8.25484 0.25808,12.66374 4.75077,0.42063 9.26261,0.54365 13.77365,1.10376 -0.0499,1.76565 0.13633,3.15397 -0.18359,4.41375 -4.10672,16.17042 -7.28104,32.6664 -12.66818,48.40326 -9.45987,27.63413 -24.95145,51.89605 -45.00907,73.21509 -3.3515,3.56231 -6.11007,7.68244 -9.4681,11.5141 -1.44889,-0.66791 -2.5723,-1.30513 -4.03989,-2.10696 -7.17333,-3.50325 -13.75794,-1.63449 -19.92952,1.38623 -15.8858,7.77533 -25.21506,20.91421 -30.08953,37.79016 -3.348,1.46838 -6.32679,2.9173 -9.32955,4.3147 -26.40535,12.28796 -54.25928,18.44534 -83.22963,19.25308 0.80906,-3.91214 2.55871,-7.52451 -1.10114,-10.82749 -0.39445,-0.41824 -0.66923,-0.61065 -0.9453,-0.78485 -0.001,0.0182 0.0247,-0.008 -0.13804,-0.32812 -2.9616,-1.43344 -5.69599,-3.28031 -8.57044,-3.53284 C 90.94989,299.04089 81.318611,304.2023 73.587112,313.98956 64.50547,312.31763 55.834381,310.65491 47.1633,308.99219 M 242.17844,142.91066 c -2.58338,-0.063 -5.33303,-0.73804 -7.72292,-0.0888 -14.67526,3.98677 -23.2702,14.23749 -27.20781,28.38507 -2.24051,8.05005 0.35295,14.13838 6.24318,17.3795 3.36192,0.13304 6.98038,1.14322 10.04152,0.24789 13.53024,-3.95733 21.36175,-13.75117 25.56465,-26.76788 2.69156,-8.33597 0.90321,-13.6443 -6.91862,-19.15579 M 152.43167,269.2066 c -0.21068,4.57395 1.32761,6.24323 5.53342,5.74399 5.11407,-0.60705 9.02475,-3.36203 11.70649,-7.5972 0.84433,-1.33337 1.37192,-4.1734 0.63195,-4.91574 -1.29973,-1.3038 -3.8758,-2.39551 -5.58585,-2.02914 -4.93045,1.05639 -9.4368,3.25662 -12.28601,8.79809 M 275.39252,112.20535 c -0.40296,0.90457 -1.18613,1.83181 -1.13382,2.70924 0.12997,2.17968 0.64108,4.33665 0.99911,6.50275 2.04892,-0.7745 4.73612,-0.98516 6.0185,-2.43682 2.98785,-3.38223 5.51123,-7.24125 7.75122,-11.17557 0.64053,-1.12496 0.12332,-4.21929 -0.66703,-4.56327 -1.43988,-0.62668 -4.00595,-0.51409 -5.1665,0.43465 -2.76913,2.26366 -4.99347,5.19377 -7.80148,8.52902 M 73.375053,272.00656 c -5.2574,-0.64633 -8.212738,2.8537 -10.949691,6.37979 -2.097519,2.7023 -0.937752,4.98755 2.472396,5.58631 4.132996,0.72564 10.329384,-2.60877 11.734391,-6.61206 0.80513,-2.2941 0.851501,-4.68845 -3.257096,-5.35404 M 177.57901,256.97577 c -0.33279,1.29465 -0.66559,2.58929 -0.99838,3.88394 1.03311,0.24796 2.43255,1.04505 3.03302,0.64447 2.08979,-1.39416 3.90277,-3.20325 5.821,-4.85458 -0.3649,-0.62628 -0.72979,-1.25254 -1.09467,-1.8788 -2.05621,0.57286 -4.11241,1.14573 -6.76097,2.20497 z"
   id="path2"
   inkscape:export-filename="moon.svg"
   inkscape:export-xdpi="96"
   inkscape:export-ydpi="96" />
<path
   fill="#dedffb"
   opacity="1"
   stroke="none"
   d="m 414.13324,96.941467 c 0.90585,0.784981 1.81171,1.569962 2.70148,2.949898 0.20324,1.757745 0.10086,3.126615 0.69275,4.050815 4.82821,7.53905 10.04779,14.83773 14.65789,22.5044 17.08503,28.41234 26.09867,59.54106 28.58435,92.3336 1.70795,22.53169 -0.0892,45.07794 -5.56952,67.19202 -4.7406,19.12918 -11.83016,37.26477 -21.37222,54.53268 -13.86426,25.08969 -32.44134,46.1872 -54.49692,64.16318 -15.50329,12.63565 -32.75244,22.63431 -51.29788,30.36609 -25.08578,10.45853 -51.27212,16.04373 -78.30433,16.73779 -12.83564,0.32959 -25.82366,-1.0834 -38.58519,-2.84662 -38.5609,-5.32788 -72.72246,-21.0083 -103.06853,-45.24872 -0.72101,-0.57598 -2.06987,-0.36602 -3.12588,-0.52264 -7.91577,-8.79199 -15.831541,-17.58401 -23.673994,-26.97552 1.387939,-0.2613 2.835609,-0.17066 3.996627,0.45336 11.834221,6.36027 23.334687,13.43314 35.517777,19.02219 8.9493,4.1055 18.77569,6.29913 28.316,9.56033 0.29721,0.48383 0.54863,0.67417 1.11708,0.78739 0.43007,0.001 0.6021,0.001 0.8038,0.35321 4.33675,2.77209 8.41733,5.82071 13.00124,7.47311 7.89227,2.84507 15.90872,0.37323 24.3056,-0.86221 9.36309,0.0224 18.25066,0.022 27.1382,0.04 23.29602,0.0471 45.49666,-5.5571 67.3058,-13.1135 1.83594,-0.63614 3.47187,-1.84955 5.57334,-2.6744 3.28607,0.56961 6.23858,1.57141 9.10595,1.36871 10.22077,-0.72247 19.74412,-3.83991 28.34766,-9.51532 11.2746,-7.43741 21.20896,-15.96567 24.5011,-30.21936 9.90314,-10.39414 20.37674,-19.96887 28.94171,-31.02255 21.14844,-27.29349 34.70703,-58.20478 40.83982,-92.29616 0.29376,-1.63285 1.91094,-3.02761 2.96737,-4.24471 0.29038,0.3734 0.52237,0.47145 0.76419,0.5242 0.0262,0.006 0.15006,-0.24766 0.16071,-0.38606 0.52087,-6.79599 -1.98368,-14.37491 5.02136,-19.49091 1.40524,-1.02629 2.76349,-2.50135 4.3403,-2.8328 3.9642,-0.83332 8.04102,-1.13118 12.80701,-1.73707 -1.12042,-0.84359 -1.36344,-1.1855 -1.61551,-1.19233 -3.30704,-0.0894 -6.61527,-0.13783 -9.9234,-0.18392 -5.75794,-0.0802 -6.03009,-0.43071 -4.37064,-6.08221 0.49066,-0.30907 0.6745,-0.57193 0.99091,-1.00388 0.4924,-0.31198 0.67575,-0.57754 0.91137,-0.95872 0.0469,-0.0178 -0.0469,0.019 -0.36615,0.15532 -0.50854,0.2952 -0.69537,0.55899 -1.00824,0.99304 -0.50015,0.29842 -0.68688,0.55983 -1.15917,0.93016 -2.96003,1.10788 -5.27707,1.6078 -5.58634,-2.33328 -0.33179,-4.22837 -0.68292,-8.45522 -1.022,-13.14052 -0.65222,-7.19403 -1.00861,-13.97536 -2.01587,-20.6586 -4.24722,-28.18013 -13.36676,-54.63365 -28.37976,-78.977302 -2.15225,-3.489937 -3.72251,-7.338791 -5.56214,-11.021538 5.31052,3.848205 10.79087,7.487312 15.87372,11.615814 3.5752,2.903946 6.60965,6.473595 10.11298,10.301453 0.52011,0.747673 0.81286,0.939895 1.10559,1.13211 m 18.96719,120.332583 c 0.0842,0.0507 0.1684,0.10138 0.25257,0.15207 -0.11954,-0.14057 -0.23911,-0.28115 -0.46711,-0.70118 -0.0874,-0.0481 -0.17477,-0.0962 -0.26214,-0.14437 0.12695,0.13783 0.25388,0.27566 0.47668,0.69348 M 244.20265,426.84228 c 0.75856,1.12235 1.26366,2.69611 2.31952,3.28895 4.58638,2.57507 19.50563,-0.27582 23.00197,-4.15217 2.16711,-2.40264 1.89313,-4.25714 -1.33902,-5.02981 -8.69485,-2.07861 -16.63864,-0.45096 -23.98247,5.89303 M 434.88876,249.2242 c 0.45835,0.15303 1.04081,0.56907 1.35663,0.42004 5.70053,-2.68986 9.55005,-20.88641 5.17905,-25.26979 -0.64404,-0.6459 -3.76673,-0.24478 -4.15821,0.50221 -3.93362,7.50626 -6.09515,15.35147 -2.37747,24.34754 m -28.9324,73.31926 c -1.64935,3.35177 -3.62451,6.59146 -4.82971,10.09597 -0.76163,2.21485 0.4313,3.96546 3.29526,3.01801 4.33828,-1.43512 12.60351,-12.55914 12.50375,-17.00342 -0.0232,-1.03216 -0.47696,-2.5242 -1.2168,-2.93713 -0.72314,-0.40366 -2.32959,-0.0274 -3.08493,0.58136 -2.17865,1.75589 -4.12362,3.80173 -6.66757,6.24521 m -53.78513,82.89163 c -3.48913,2.12152 -7.03991,4.15188 -10.41812,6.43741 -0.72006,0.48715 -0.81253,1.90201 -1.19415,2.88943 1.02115,0.29856 2.25977,1.12384 3.02689,0.80713 3.93783,-1.62573 7.84835,-3.37924 11.54919,-5.47516 0.9621,-0.54492 1.13702,-2.47967 1.67352,-3.77606 -1.29623,-0.38345 -2.5925,-0.76688 -4.63733,-0.88275 m 80.04154,-242.43392 c 0.98446,0.0322 2.4025,0.50142 2.88269,0.0251 2.99451,-2.9701 1.76089,-11.65677 -2.23538,-14.58753 -2.67929,4.53296 -2.34232,9.11789 -0.64731,14.56239 M 128.30031,404.16263 c -2.83134,-1.16843 -5.66268,-2.33689 -9.37546,-3.86911 1.65632,5.8345 6.74576,8.76227 12.45812,7.86822 -0.9451,-1.38644 -1.6968,-2.48916 -3.08266,-3.99911 m 118.92248,34.92358 c -2.6898,-3.40173 -7.89891,-2.45901 -10.64724,2.28488 3.82817,1.22196 7.1235,0.54844 10.64724,-2.28488 M 189.1972,418.00729 c -2.01931,0.20877 -4.03863,0.41754 -6.05795,0.62632 0.0351,0.73706 0.0701,1.47415 0.10521,2.21121 2.43454,0 4.86906,0 7.3036,0 -0.16925,-0.9328 -0.33848,-1.86557 -1.35086,-2.83753 z"
   id="path3" />
<path
   fill="#e9e7fc"
   opacity="1"
   stroke="none"
   d="m 422.99878,231 c -1.00089,1.50561 -2.61807,2.90037 -2.91183,4.53322 -6.13279,34.09138 -19.69138,65.00267 -40.83982,92.29616 -8.56497,11.05368 -19.03857,20.62841 -28.95856,30.63571 -1.64065,-2.98905 -2.96637,-5.73767 -4.45715,-8.80075 -3.03305,-1.43085 -5.86841,-3.41687 -8.77408,-3.52576 -22.88959,-0.85773 -39.89007,10.12735 -52.85348,27.90955 -3.69358,5.06659 -6.53788,11.37268 -2.07831,18.18811 0.27643,0.52334 0.53772,0.71411 0.87024,0.78311 -0.004,-0.0191 -0.0404,9.4e-4 0.0989,0.30041 1.72064,1.4589 3.30203,2.61832 4.88342,3.77777 -1.72885,0.94522 -3.36478,2.15863 -5.20072,2.79477 -21.80914,7.5564 -44.00978,13.16056 -67.3058,13.1135 -8.88754,-0.018 -17.77511,-0.0176 -26.91162,-0.30414 1.37143,-1.13101 3.1814,-1.75009 4.57453,-2.88217 3.3865,-2.75205 7.64575,-5.17081 5.81581,-11.13471 -2.63976,-2.74585 -4.86046,-6.14453 -7.93947,-7.34887 -9.15274,-3.57999 -18.84336,-3.46555 -28.23702,-0.98651 -9.36995,2.47271 -13.26236,7.12988 -13.77075,14.64816 -0.002,0.002 -0.002,0.001 -0.002,0.001 -9.43553,-3.04566 -19.26192,-5.23929 -28.21122,-9.34479 -12.18309,-5.58905 -23.683556,-12.66192 -35.517777,-19.02219 -1.161018,-0.62402 -2.608688,-0.71466 -4.125953,-0.77297 -6.516709,-9.8154 -12.830765,-19.91068 -18.9594,-30.65363 4.304912,0.79318 8.51041,2.02844 12.529491,3.70935 21.13446,8.83923 43.194489,14.21808 65.939779,15.84671 12.86615,0.92124 25.90354,-0.21405 38.84715,-0.79422 16.17777,-0.72519 31.75429,-4.68704 47.05326,-9.75461 3.25583,-1.07846 6.30191,-2.79007 9.88453,-4.21023 1.76774,0.0507 3.0976,0.17654 4.42308,0.14062 9.53452,-0.25821 19.23122,0.45258 28.56359,-1.06643 13.73129,-2.23496 24.50754,-10.80655 34.09705,-20.32206 8.09384,-8.03146 15.60275,-16.72903 22.72225,-25.64923 13.336,-16.70898 26.46588,-33.61596 36.11347,-53.09561 5.89929,-2.36754 9.18872,-10.50418 7.64395,-18.38174 0.50973,-2.49868 1.12653,-4.57181 1.49051,-6.68842 1.32358,-7.69644 2.79736,-15.44505 -3.44879,-22.32703 1.0144,-5.78802 1.98141,-11.18708 3.2991,-16.44265 2.09857,0.38472 3.8464,0.62594 5.97189,0.86068 3.12455,-1.96162 7.11167,-3.33056 8.36862,-5.98994 2.91196,-6.16078 5.22504,-12.81114 6.47309,-19.50678 2.26846,-12.17019 -0.47721,-23.68241 -7.01544,-34.21126 -2.76441,-4.45158 -6.79529,-6.67965 -12.12882,-6.32005 -6.4e-4,-0.0358 -0.0122,-0.10637 -0.013,-0.52793 -2.52829,-20.24811 -7.78989,-39.321805 -15.5405,-57.743497 -0.70553,-1.676849 -0.24929,-3.842495 -0.33254,-5.781155 10.79321,3.859585 21.00457,8.790867 29.88806,16.577946 1.86428,4.047173 3.43454,7.896027 5.58679,11.385964 15.013,24.343652 24.13254,50.797172 28.37976,78.977302 1.00726,6.68324 1.36365,13.46457 1.62164,20.74857 -0.80078,3.86454 -1.2276,7.17865 -1.59823,10.49902 -0.24131,2.16174 -0.40088,4.33259 -0.63904,6.96277 -2.39279,-0.9412 -3.87714,-1.52506 -5.47068,-2.32712 -0.31054,-0.4893 -0.57241,-0.6751 -1.00344,-0.99463 -0.30908,-0.4919 -0.57096,-0.67851 -0.94815,-0.91579 -0.13886,-0.18511 -0.22391,-0.23332 -0.30896,-0.28152 0.1217,0.13885 0.24337,0.27769 0.47018,0.63811 0.30347,0.49839 0.56595,0.68504 0.99774,1.00242 0.3028,0.49691 0.564,0.68436 0.92575,1.13845 0.60706,1.64555 1.1771,2.93594 2.09412,5.01173 -6.20999,0.78413 -11.8664,1.49838 -17.52277,2.21262 0.0296,0.47219 0.0592,0.94441 0.0889,1.41661 2.21356,0 4.42715,-0.002 6.64072,3.2e-4 11.60366,0.0117 15.45007,3.90675 15.71038,15.68139 0.0466,2.11141 0.62497,4.21105 0.9578,6.31612 m -22.52206,-3.64943 c -0.31443,-0.0997 -0.62858,-0.28549 -0.94333,-0.28658 -8.37964,-0.029 -14.22464,4.35705 -19.03675,10.74308 -9.27817,12.31288 -14.62274,25.89783 -13.45114,41.53378 0.45337,6.05026 2.77747,11.16785 9.42084,14.23892 5.77502,1.01273 10.52441,-1.40988 14.43295,-5.12692 12.5557,-11.94067 18.77765,-26.8844 18.90753,-44.06662 0.0499,-6.59912 -1.34655,-13.39778 -9.3301,-17.03566 m -69.5272,82.24587 c -0.91739,1.7619 -2.22857,3.43878 -2.63287,5.31146 -0.3504,1.62307 -0.2739,4.30798 0.70047,5.00528 1.25656,0.89929 3.86826,0.90466 5.42157,0.2192 7.28955,-3.21719 12.45447,-8.67794 15.01175,-16.27285 0.50052,-1.48645 0.34186,-4.07038 -0.61093,-4.92764 -0.97882,-0.88071 -3.8291,-0.99055 -4.94458,-0.17899 -4.34567,3.16174 -8.328,6.823 -12.94541,10.84354 m 64.04706,-115.26037 c 0.21228,1.36596 0.42459,2.73191 0.69016,4.44062 4.48468,-3.44059 5.23578,-7.93801 1.76819,-13.12091 -0.98234,3.15002 -1.71979,5.51478 -2.45835,8.68029 m 17.58829,24.17763 c 0,0 -0.10935,0.065 0,0 z"
   id="path4" />
<path
   fill="#eeedf9"
   opacity="1"
   stroke="none"
   d="m 356.95712,56.595039 c 0.25437,2.293339 -0.20187,4.458985 0.50366,6.135834 7.75061,18.421692 13.01221,37.495387 15.19193,57.811057 -5.97223,3.06902 -9.0769,7.64742 -11.16818,13.32401 -3.69663,10.03422 -4.48148,20.24789 -2.35138,30.64099 1.71002,8.34363 4.21347,16.3855 11.86108,21.51924 -0.96698,5.39905 -1.93399,10.79811 -3.31088,16.42692 -7.18198,-1.32562 -12.34277,0.76276 -16.66788,7.67223 -5.0137,8.00948 -9.39984,16.41006 -14.35214,24.46016 -6.40836,10.41695 -12.57797,21.04533 -19.81927,30.86847 -8.43335,11.44025 -17.70185,22.29175 -27.0037,33.05679 -8.14438,9.42548 -17.9317,16.55383 -30.16174,20.25882 -7.198,2.18057 -14.51938,4.75577 -20.9121,8.60404 -9.50144,5.71975 -10.35873,16.47949 -2.7657,22.62884 -3.14271,1.41992 -6.18879,3.13153 -9.44462,4.20999 -15.29897,5.06757 -30.87549,9.02942 -47.05326,9.75461 -12.94361,0.58017 -25.981,1.71546 -38.84715,0.79422 -22.74529,-1.62863 -44.805319,-7.00748 -65.939779,-15.84671 -4.019081,-1.68091 -8.224579,-2.91617 -12.556206,-4.07715 -5.118023,-11.50735 -10.02391,-23.29465 -14.96315,-35.46356 8.637726,1.28107 17.308815,2.94379 26.341034,5.01038 -0.473701,3.63528 -2.012512,6.94982 1.512741,10.01669 3.401505,4.82693 8.547776,5.7355 13.30793,5.35724 10.357148,-0.82303 19.38119,-4.92087 25.64524,-13.75903 29.02109,-1.20783 56.87502,-7.36521 83.28037,-19.65317 3.00276,-1.3974 5.98155,-2.84632 9.33979,-3.85309 0.37139,3.0516 0.28708,5.68857 0.39511,8.31759 0.24817,6.03858 4.21706,11.23627 10.27794,13.51148 4.88837,0.0969 9.73749,0.79648 14.02123,-0.44879 13.33157,-3.87549 22.29536,-13.36246 28.72694,-25.18115 5.93939,-10.91425 8.7374,-22.24262 0.95297,-33.69947 3.03254,-3.86236 5.79111,-7.98249 9.14261,-11.5448 20.05762,-21.31904 35.5492,-45.58096 45.00907,-73.21509 5.38714,-15.73686 8.56146,-32.23284 12.66818,-48.40326 0.31992,-1.25978 0.13373,-2.6481 0.38205,-4.68043 3.80344,-3.78514 7.82263,-6.50327 10.9133,-10.03417 4.48849,-5.12788 3.74667,-11.014566 -1.51224,-15.15516 -3.12759,-0.03596 -5.87344,-0.01955 -8.61932,-0.0031 -0.99466,-13.316849 -1.98935,-26.63369 -2.9866,-40.370392 10.69576,-1.361317 20.70465,1.881641 30.96212,5.008964 M 298.45071,263.92096 c 0.90415,0.29062 1.88248,0.96814 2.70084,0.81131 7.1875,-1.37775 19.18124,-14.65155 19.76504,-21.99638 0.13199,-1.66083 -0.15716,-4.1346 -1.21347,-4.88965 -1.0418,-0.74469 -3.64465,-0.32404 -4.96994,0.51808 -6.62686,4.21097 -12.57721,9.2801 -15.66388,16.7307 -1.03112,2.48896 -0.80383,5.49928 -0.61859,8.82594 m -139.79802,86.87753 c 7.81771,4.18146 15.85033,4.44562 23.86609,0.84378 1.73954,-0.78167 4.1019,-2.8515 4.04683,-4.24374 -0.0622,-1.57272 -2.24869,-3.75421 -3.99661,-4.44739 -7.53583,-2.98852 -15.17064,-2.86847 -22.62628,0.57828 -3.26964,1.51153 -3.89942,3.79687 -1.29003,7.26907 M 342.06226,162.0889 c 3.43603,3.81738 5.98391,3.85147 8.44647,-0.36179 2.61059,-4.46661 3.46356,-9.34015 0.70151,-14.09747 -0.82651,-1.42359 -2.57697,-3.35703 -3.76847,-3.26674 -1.61557,0.12242 -4.18133,1.75828 -4.44415,3.11272 -0.87958,4.53326 -0.91596,9.23013 -0.93536,14.61328 M 127.04039,330.15671 c -1.62616,0.64987 -3.25232,1.29974 -4.87848,1.94961 -0.0848,0.59146 -0.16961,1.18293 -0.25441,1.77436 2.04897,0.70828 4.1479,2.10116 6.13458,1.9562 2.64101,-0.19278 5.19454,-1.58416 7.78565,-2.46057 -1.48937,-3.90918 -4.86173,-3.30533 -8.78734,-3.2196 M 335.34824,71.565331 c 1.03753,0.413879 2.61618,1.477165 3.02499,1.13652 2.70608,-2.254883 1.93539,-8.087044 -2.38294,-11.358753 -0.34005,3.657802 -0.6094,6.555088 -0.64205,10.222233 z"
   id="path5" />
<path
   fill="#fefeff"
   opacity="1"
   stroke="none"
   d="m 105.99155,248.03348 c -3.45018,2.88449 -6.539661,6.43489 -10.415172,8.53415 -14.138519,7.65848 -29.421326,10.92318 -45.502644,10.44351 -2.66127,-0.0794 -5.326923,-0.0119 -8.448536,-0.0131 1.027039,-15.14699 5.438046,-29.47426 11.198147,-43.5076 7.515438,-18.30983 17.552471,-35.08089 29.802044,-50.55408 2.952622,-3.72965 6.467178,-7.00876 9.54818,-10.64349 8.973341,-10.58611 18.086511,-21.06655 26.694721,-31.94465 5.47168,-6.91447 12.1211,-11.98108 19.56035,-16.56209 11.51006,-7.0878 22.31268,-15.329178 33.85987,-22.350197 7.04668,-4.284577 15.00617,-7.041611 22.40198,-10.788117 4.40854,-2.233238 8.69641,-4.804047 12.72931,-7.659782 10.00424,-7.084091 20.51898,-12.337483 33.13515,-13.088997 15.87724,-0.945767 31.67201,-2.686421 47.1851,-6.66536 5.93158,-1.521381 12.2525,-1.524715 18.82657,-2.143566 -1.4538,14.350613 -8.18982,26.399235 -16.77609,37.601505 -12.79614,16.694744 -29.44562,27.242104 -49.86315,32.435444 -13.14215,3.3428 -26.04046,7.67714 -38.96054,11.83881 -3.58366,1.15434 -6.85458,3.27954 -10.66984,4.63118 -3.75489,-3.87441 -6.46663,-3.04616 -10.35767,3.23553 1.48143,0.42881 2.76987,0.80175 4.0583,1.1747 -3.81899,4.92584 -7.87086,9.69155 -11.39685,14.81887 -4.21878,6.13476 -7.92747,12.6181 -11.99434,18.86106 -1.03309,1.58591 -2.58613,2.83309 -4.40362,3.97643 -3.00995,-2.08237 -5.51654,-3.90526 -8.25316,-6.03337 -3.87082,-0.88918 -7.63272,-2.37349 -11.13164,-1.90277 -16.02381,2.15565 -27.52705,11.65014 -36.74291,24.24205 -7.450873,10.18036 -12.002165,21.37036 -11.12007,34.35974 0.51783,7.6254 5.078102,14.2812 12.27985,16.96895 1.75812,0.42483 3.25738,0.58004 4.75666,0.73529 M 241.4787,99.551697 c 10.76103,3.800503 26.42489,-6.932503 26.37332,-18.312653 -0.008,-1.753647 -1.81958,-3.499115 -3.20764,-5.924759 -0.68857,-0.416504 -1.33273,-1.078384 -2.07245,-1.212356 -9.66489,-1.750481 -21.35664,5.382156 -23.99352,14.862396 -0.99838,3.589424 -2.0444,7.577949 2.90029,10.587372 M 103.71183,175.58264 c 2.16701,-2.683 4.61378,-5.19884 6.36546,-8.13005 0.71611,-1.19832 0.5645,-4.00821 -0.33199,-4.80885 -1.20254,-1.07396 -3.82909,-1.69522 -5.27454,-1.10813 -2.67704,1.08731 -5.60297,2.72765 -7.196727,4.99948 -1.708573,2.43554 -2.001839,5.86391 -2.912774,8.859 2.892678,0.19089 5.785351,0.38177 9.350571,0.18855 m 69.25571,-34.41385 c -6.08047,-1.11952 -10.93966,1.24097 -14.35011,5.98302 -1.18022,1.64101 -1.25963,4.67944 -0.64421,6.71803 0.25838,0.8559 3.86682,1.50647 5.52599,0.95883 3.06768,-1.01257 6.12957,-2.60133 8.62132,-4.64735 2.63357,-2.16248 4.2993,-5.18994 0.84701,-9.01253 m 29.39739,-45.064756 c 1.52653,-1.269554 3.05307,-2.539108 5.04877,-4.198852 -6.79508,-1.498978 -13.03331,1.15052 -15.12508,6.679916 3.55058,-0.758774 6.50592,-1.390342 10.07631,-2.481064 M 119.90037,153.1712 c -1.3348,1.17491 -2.80329,2.23758 -3.93362,3.58412 -0.40918,0.48743 -0.22605,2.30111 0.0603,2.39725 1.1306,0.37961 2.8201,0.86023 3.54925,0.30838 1.59918,-1.21028 2.73982,-3.02647 4.06769,-4.59527 -1.00478,-0.60559 -2.00957,-1.21119 -3.74362,-1.69448 z"
   id="path6" />
<path
   fill="#d1d0f3"
   opacity="1"
   stroke="none"
   d="m 105.06738,403.46628 c 0.93787,-0.1557 2.28673,-0.36566 3.00774,0.21032 30.34607,24.24042 64.50763,39.92084 103.06853,45.24872 12.76153,1.76322 25.74955,3.17621 38.58519,2.84662 27.03221,-0.69406 53.21855,-6.27926 78.30433,-16.73779 18.54544,-7.73178 35.79459,-17.73044 51.29788,-30.36609 22.05558,-17.97598 40.63266,-39.07349 54.49692,-64.16318 9.54206,-17.26791 16.63162,-35.4035 21.37222,-54.53268 5.48035,-22.11408 7.27747,-44.66033 5.56952,-67.19202 -2.48568,-32.79254 -11.49932,-63.92126 -28.58435,-92.3336 -4.6101,-7.66667 -9.82968,-14.96535 -14.65789,-22.5044 -0.59189,-0.9242 -0.48951,-2.29307 -0.5777,-3.76914 7.26489,9.04462 14.83047,18.10855 21.44275,27.82144 13.87024,20.37439 23.10846,42.91709 28.47906,66.89549 2.50443,11.18158 3.46863,22.70813 5.13416,34.94841 0.28195,2.95976 0.56067,5.04947 0.83938,7.13916 0.0531,5.37594 0.10623,10.75189 -0.17666,16.89483 -0.43396,3.25913 -0.53189,5.75129 -0.62983,8.24341 -0.68621,22.03781 -6.34384,42.96003 -13.92495,63.5094 -7.25153,19.65604 -17.62146,37.71573 -30.58908,53.85224 -10.30353,12.82144 -22.85984,23.89517 -34.87064,35.26455 -12.38531,11.72388 -27.06827,20.19532 -42.3519,27.57627 -17.70776,8.55166 -36.28323,14.17514 -55.65261,17.90063 -19.37952,3.72742 -38.86077,3.49512 -58.19706,2.48273 -21.92201,-1.14774 -43.18408,-6.8999 -63.60869,-15.2709 -20.26941,-8.30741 -38.71139,-19.71695 -55.98038,-33.06727 -4.14371,-3.20346 -7.79826,-7.03967 -11.79594,-10.89715 z"
   id="path7" />
<path
   fill="#dedffb"
   opacity="1"
   stroke="none"
   d="m 472.41415,261.91894 c -0.27758,-2.29528 -0.17965,-4.78744 0.17469,-7.5828 0.23788,2.25984 0.21936,4.82292 -0.17469,7.5828 z"
   id="path8" />
<path
   fill="#dedffb"
   opacity="1"
   stroke="none"
   d="m 472.91455,236.55705 c -0.34814,-1.6692 -0.62686,-3.75891 -0.88837,-6.26957 0.33075,1.66905 0.64426,3.75906 0.88837,6.26957 z"
   id="path9" />
<path
   fill="#d1d0f3"
   opacity="1"
   stroke="none"
   d="m 414.04761,96.681396 c -0.2071,0.06786 -0.49985,-0.124366 -0.89399,-0.564842 0.20185,-0.06391 0.50513,0.12043 0.89399,0.564842 z"
   id="path10" />
<path
   fill="#dedffb"
   opacity="1"
   stroke="none"
   d="m 148.17969,173.93545 c 2.50659,1.82288 5.01318,3.64577 7.67294,5.76569 5.97292,11.60863 3.49132,22.74828 -1.53773,33.27115 -6.12499,12.81589 -15.53464,23.04665 -27.91648,30.27272 -5.99185,3.49687 -12.44294,5.44978 -19.95195,4.77675 -1.9542,-0.14353 -3.45346,-0.29874 -5.01038,-0.94028 -1.505167,-6.66019 -4.687433,-13.01132 -4.078157,-18.97508 1.903702,-18.63377 12.052747,-32.91461 26.743907,-44.18721 7.16424,-5.49715 15.34189,-8.36934 24.07785,-9.98374 z"
   id="path11" />
<path
   fill="#dedffb"
   opacity="1"
   stroke="none"
   d="m 260.67246,254.96182 c 8.10992,11.48755 5.31191,22.81592 -0.62748,33.73017 -6.43158,11.81869 -15.39537,21.30566 -28.72694,25.18115 -4.28374,1.24527 -9.13286,0.54565 -14.05966,0.071 -1.31025,-4.29989 -2.71291,-7.88028 -3.18518,-11.57943 -2.2733,-17.80588 17.61876,-41.66166 32.58979,-46.39193 3.40868,-1.07701 6.87435,-1.97366 10.31379,-2.95331 1.12338,0.63721 2.24679,1.27443 3.69568,1.94234 z"
   id="path12" />
<path
   fill="#dedffb"
   opacity="1"
   stroke="none"
   d="m 242.96382,143.03369 c 7.03645,5.38846 8.8248,10.69679 6.13324,19.03276 -4.2029,13.01671 -12.03441,22.81055 -25.56465,26.76788 -3.06114,0.89533 -6.6796,-0.11485 -10.04398,-0.7476 -0.49729,-3.01889 -1.33075,-5.52464 -1.43142,-8.05949 -0.60257,-15.1695 12.62066,-30.92131 26.5402,-35.01206 1.51851,-0.44627 2.91404,-1.31091 4.36661,-1.98149 z"
   id="path13" />
<path
   fill="#dedffb"
   opacity="1"
   stroke="none"
   d="m 114.05434,315.59903 c -6.31479,9.23825 -15.338832,13.33609 -25.69598,14.15912 -4.760154,0.37826 -9.906425,-0.53031 -13.26551,-5.7312 2.215004,-10.25272 9.002754,-15.15247 17.604492,-18.45642 6.352608,-2.44007 12.760158,-2.64945 19.335278,-1.59177 0,0 -0.026,0.0261 0.086,0.24002 0.39274,0.40216 0.67351,0.59039 0.95429,0.77859 3.54019,3.07715 1.79054,6.68952 0.98148,10.60166 z"
   id="path14" />
<path
   fill="#d1cff2"
   opacity="1"
   stroke="none"
   d="m 256.63257,252.85486 c -3.09523,1.14427 -6.5609,2.04092 -9.96958,3.11793 -14.97103,4.73027 -34.86309,28.58605 -32.58979,46.39193 0.47227,3.69915 1.87493,7.27954 2.88728,11.29238 -5.72455,-1.61038 -9.69344,-6.80807 -9.94161,-12.84665 -0.10803,-2.62902 -0.0237,-5.26599 -0.037,-8.36096 4.50612,-17.29419 13.83538,-30.43307 29.72118,-38.2084 6.17158,-3.02072 12.75619,-4.88948 19.92952,-1.38623 z"
   id="path15" />
<path
   fill="#dedffb"
   opacity="1"
   stroke="none"
   d="m 337.98264,92.011978 c 4.87719,4.088226 5.61901,9.974912 1.13052,15.102792 -3.09067,3.5309 -7.10986,6.24903 -10.91248,9.5971 -4.71032,0.14364 -9.22216,0.0206 -13.68664,-0.67569 -0.0688,-10.46708 5.66842,-16.456407 13.78723,-20.603715 3.02118,-1.543305 6.4425,-2.303299 9.68137,-3.420487 z"
   id="path16" />
<path
   fill="#d1d0f3"
   opacity="1"
   stroke="none"
   d="m 242.57114,142.97217 c -1.05989,0.7321 -2.45542,1.59674 -3.97393,2.04301 -13.91954,4.09075 -27.14277,19.84256 -26.5402,35.01206 0.10067,2.53485 0.93413,5.0406 1.16948,7.78755 -5.62583,-2.46947 -8.21929,-8.5578 -5.97878,-16.60785 3.93761,-14.14758 12.53255,-24.3983 27.20781,-28.38507 2.38989,-0.64925 5.13954,0.0258 8.11562,0.1503 z"
   id="path17" />
<path
   fill="#e9e7fc"
   opacity="1"
   stroke="none"
   d="m 152.60028,268.8656 c 2.6806,-5.20047 7.18695,-7.4007 12.1174,-8.45709 1.71005,-0.36637 4.28612,0.72534 5.58585,2.02914 0.73997,0.74234 0.21238,3.58237 -0.63195,4.91574 -2.68174,4.23517 -6.59242,6.99015 -11.70649,7.5972 -4.20581,0.49924 -5.7441,-1.17004 -5.36481,-6.08499 z"
   id="path18" />
<path
   fill="#d1cff2"
   opacity="1"
   stroke="none"
   d="m 111.86986,303.65857 c -6.41236,-0.73749 -12.81991,-0.52811 -19.172518,1.91196 -8.601738,3.30395 -15.389488,8.2037 -17.661896,18.11312 -3.510269,-2.34961 -1.971458,-5.66415 -1.087196,-9.29022 7.370361,-10.19113 17.00164,-15.35254 29.35117,-14.2677 2.87445,0.25253 5.60884,2.0994 8.57044,3.53284 z"
   id="path19" />
<path
   fill="#e9e7fc"
   opacity="1"
   stroke="none"
   d="m 275.57434,111.86821 c 2.62619,-2.99811 4.85053,-5.92822 7.61966,-8.19188 1.16055,-0.94874 3.72662,-1.06133 5.1665,-0.43465 0.79035,0.34398 1.30756,3.43831 0.66703,4.56327 -2.23999,3.93432 -4.76337,7.79334 -7.75122,11.17557 -1.28238,1.45166 -3.96958,1.66232 -6.0185,2.43682 -0.35803,-2.1661 -0.86914,-4.32307 -0.99911,-6.50275 -0.0523,-0.87743 0.73086,-1.80467 1.31564,-3.04638 z"
   id="path20" />
<path
   fill="#e9e7fc"
   opacity="1"
   stroke="none"
   d="m 73.784164,272.02405 c 3.699486,0.6481 3.653115,3.04245 2.847985,5.33655 -1.405007,4.00329 -7.601395,7.3377 -11.734391,6.61206 -3.410148,-0.59876 -4.569915,-2.88401 -2.472396,-5.58631 2.736953,-3.52609 5.692291,-7.02612 11.358802,-6.3623 z"
   id="path21" />
<path
   fill="#d1d0f3"
   opacity="1"
   stroke="none"
   d="m 337.60092,91.95961 c -2.85715,1.169556 -6.27847,1.92955 -9.29965,3.472855 -8.11881,4.147308 -13.85602,10.136635 -14.02612,20.306125 -3.8675,-3.83563 -2.5177,-8.09457 -0.30548,-12.09047 3.168,-5.722186 8.28476,-9.264064 14.65808,-11.636508 3.09973,-0.07156 5.84558,-0.08796 8.97317,-0.052 z"
   id="path22" />
<path
   fill="#e9e7fc"
   opacity="1"
   stroke="none"
   d="m 184.29958,141.87173 c -1.59038,-0.23745 -2.87882,-0.61039 -4.36025,-1.0392 3.89104,-6.28169 6.60278,-7.10994 9.99594,-3.19928 -1.75183,1.61058 -3.5428,2.85679 -5.63569,4.23848 z"
   id="path23" />
<path
   fill="#e9e7fc"
   opacity="1"
   stroke="none"
   d="m 177.87518,256.7326 c 2.35239,-0.81607 4.40859,-1.38894 6.4648,-1.9618 0.36488,0.62626 0.72977,1.25252 1.09467,1.8788 -1.91823,1.65133 -3.73121,3.46042 -5.821,4.85458 -0.60047,0.40058 -1.99991,-0.39651 -3.03302,-0.64447 0.33279,-1.29465 0.66559,-2.58929 1.29455,-4.12711 z"
   id="path24" />
<path
   fill="#d1cff2"
   opacity="1"
   stroke="none"
   d="m 112.9532,304.77154 c -0.16112,0.0376 -0.44189,-0.1506 -0.83335,-0.57092 0.16412,-0.0397 0.4389,0.15268 0.83335,0.57092 z"
   id="path25" />
<path
   fill="#b4b4e6"
   opacity="1"
   stroke="none"
   d="m 345.99652,349.97879 c 1.32568,2.74863 2.6514,5.49725 3.99396,8.63269 -2.9772,14.49414 -12.91156,23.0224 -24.18616,30.45981 -8.60354,5.67541 -18.12689,8.79285 -28.34766,9.51532 -2.86737,0.2027 -5.81988,-0.7991 -9.10595,-1.36874 -1.95401,-1.27979 -3.5354,-2.43921 -4.82349,-3.91025 6.32034,-0.5795 12.48032,-0.14673 18.34702,-1.2598 12.55572,-2.38211 23.22464,-8.98654 32.14663,-17.84637 6.56559,-6.51987 12.39377,-13.98005 11.97565,-24.22266 z"
   id="path26" />
<path
   fill="#fdfdff"
   opacity="1"
   stroke="none"
   d="m 423.05432,231.28851 c -0.38837,-2.39358 -0.9667,-4.49322 -1.01334,-6.60463 -0.26031,-11.77464 -4.10672,-15.66966 -15.71038,-15.68139 -2.21357,-0.002 -4.42716,-3.2e-4 -6.64072,-3.2e-4 -0.0296,-0.4722 -0.0592,-0.94442 -0.0889,-1.41661 5.65637,-0.71424 11.31278,-1.42849 17.52277,-2.21262 -0.91702,-2.07579 -1.48706,-3.36618 -2.09046,-5.01476 -0.0333,-0.35818 -0.0276,-0.36581 -0.0276,-0.36581 1.48434,0.58386 2.96869,1.16772 5.36148,2.10892 0.23816,-2.63018 0.39773,-4.80103 0.63904,-6.96277 0.37063,-3.32037 0.79745,-6.63448 1.59463,-10.04123 0.73691,4.13754 1.08804,8.36439 1.41983,12.59276 0.30927,3.94108 2.62631,3.44116 5.59445,2.34337 0.38483,-0.0337 0.40451,-0.0182 0.40451,-0.0182 -1.44079,5.54367 -1.16864,5.89414 4.5893,5.97438 3.30813,0.0461 6.61636,0.0945 9.9234,0.18392 0.25207,0.007 0.49509,0.34874 1.61551,1.19233 -4.76599,0.60589 -8.84281,0.90375 -12.80701,1.73707 -1.57681,0.33145 -2.93506,1.80651 -4.3403,2.8328 -7.00504,5.116 -4.50049,12.69492 -5.02136,19.49091 -0.0106,0.1384 -0.13449,0.39177 -0.16071,0.38606 -0.24182,-0.0528 -0.47381,-0.1508 -0.76419,-0.5242 z"
   id="path27" />
<path
   fill="#d1cff2"
   opacity="1"
   stroke="none"
   d="m 244.36325,426.50119 c 7.18323,-6.0029 15.12702,-7.63055 23.82187,-5.55194 3.23215,0.77267 3.50613,2.62717 1.33902,5.02981 -3.49634,3.87635 -18.41559,6.72724 -23.00197,4.15217 -1.05586,-0.59284 -1.56096,-2.1666 -2.15892,-3.63004 z"
   id="path28" />
<path
   fill="#b5b5e6"
   opacity="1"
   stroke="none"
   d="m 198.97705,399.03488 c 1.80318,5.6138 -2.45607,8.03256 -5.84257,10.78461 -1.39313,1.13208 -3.2031,1.75116 -5.05004,2.86777 -8.14795,1.514 -16.1644,3.98584 -24.05667,1.14077 -4.58391,-1.6524 -8.66449,-4.70102 -12.99895,-7.47543 -0.0274,-0.35403 -0.01,-0.37161 0.37349,-0.36939 8.13298,3.42331 16.21842,4.7078 24.66716,4.03949 9.07776,-0.7181 17.31235,-3.06845 22.90758,-10.98782 z"
   id="path29" />
<path
   fill="#d0cef2"
   opacity="1"
   stroke="none"
   d="m 434.63605,248.93816 c -3.46497,-8.71003 -1.30344,-16.55524 2.63018,-24.0615 0.39148,-0.74699 3.51417,-1.14811 4.15821,-0.50221 4.371,4.38338 0.52148,22.57993 -5.17905,25.26979 -0.31582,0.14903 -0.89828,-0.26701 -1.60934,-0.70608 z"
   id="path30" />
<path
   fill="#d1cff2"
   opacity="1"
   stroke="none"
   d="m 406.20996,322.28772 c 2.29035,-2.18774 4.23532,-4.23358 6.41397,-5.98947 0.75534,-0.6088 2.36179,-0.98502 3.08493,-0.58136 0.73984,0.41293 1.19364,1.90497 1.2168,2.93713 0.0998,4.44428 -8.16547,15.5683 -12.50375,17.00342 -2.86396,0.94745 -4.05689,-0.80316 -3.29526,-3.01801 1.2052,-3.50451 3.18036,-6.7442 5.08331,-10.35171 z"
   id="path31" />
<path
   fill="#d1cff2"
   opacity="1"
   stroke="none"
   d="m 352.54553,405.30133 c 1.67053,0.24963 2.9668,0.63306 4.263,1.01651 -0.53647,1.29639 -0.71139,3.23114 -1.67349,3.77606 -3.70084,2.09592 -7.61136,3.84943 -11.54919,5.47516 -0.76712,0.31671 -2.00574,-0.50857 -3.02689,-0.80713 0.38162,-0.98742 0.47409,-2.40228 1.19415,-2.88943 3.37821,-2.28553 6.92899,-4.31589 10.79242,-6.57117 z"
   id="path32" />
<path
   fill="#d1cff2"
   opacity="1"
   stroke="none"
   d="m 432.0816,162.62282 c -1.56384,-5.06615 -1.90081,-9.65108 0.77848,-14.18404 3.99627,2.93076 5.22989,11.61743 2.23538,14.58753 -0.48019,0.47628 -1.89823,0.007 -3.01386,-0.40349 z"
   id="path33" />
<path
   fill="#d1d0f3"
   opacity="1"
   stroke="none"
   d="m 128.61739,404.36621 c 1.06878,1.30637 1.82048,2.40909 2.76558,3.79553 -5.71236,0.89405 -10.8018,-2.03372 -12.45812,-7.86822 3.71278,1.53222 6.54412,2.70068 9.69254,4.07269 z"
   id="path34" />
<path
   fill="#d1cff2"
   opacity="1"
   stroke="none"
   d="m 247.00467,439.37402 c -3.30562,2.54551 -6.60095,3.21903 -10.42912,1.99707 2.74833,-4.74389 7.95744,-5.68661 10.42912,-1.99707 z"
   id="path35" />
<path
   fill="#d1cff2"
   opacity="1"
   stroke="none"
   d="m 189.61877,418.02685 c 0.59081,0.9524 0.76004,1.88517 0.92929,2.81797 -2.43454,0 -4.86906,0 -7.3036,0 -0.0351,-0.73706 -0.0701,-1.47415 -0.10521,-2.21121 2.01932,-0.20878 4.03864,-0.41755 6.47952,-0.60676 z"
   id="path36" />
<path
   fill="#b5b5e6"
   opacity="1"
   stroke="none"
   d="m 150.99915,406.00085 c -0.17432,0.002 -0.34635,0.002 -0.77759,-0.23962 -0.25922,-0.24127 -0.28965,-0.72131 -0.13544,-0.88776 0.41376,0.25824 0.67329,0.68286 0.93283,1.10752 0,0 -0.0175,0.0176 -0.0198,0.0199 z"
   id="path37" />
<path
   fill="#fdfdff"
   opacity="1"
   stroke="none"
   d="m 432,198.00061 c 0.0937,-0.0368 0.1875,-0.0736 0.14062,-0.0555 C 432,198 432,198.00061 432,198.00061 Z"
   id="path38" />
<path
   fill="#fdfdff"
   opacity="1"
   stroke="none"
   d="m 430.98849,198.99104 c 0.0906,-0.33192 0.27744,-0.59571 0.78598,-0.89091 C 432,198.00061 432,198 432,197.99969 c -0.095,0.3263 -0.27835,0.59186 -0.77509,0.89832 -0.22503,0.10191 -0.23642,0.093 -0.23642,0.093 z"
   id="path39" />
<path
   fill="#e9e7fc"
   opacity="1"
   stroke="none"
   d="m 149.93191,405.03992 c 0,0 0.0304,0.48004 0.0316,0.72052 -0.30924,0.12805 -0.56066,-0.0623 -0.85787,-0.54612 -0.10478,-0.21554 -0.10504,-0.21432 0.12917,-0.20962 0.2342,0.005 0.69709,0.0352 0.69709,0.0352 z"
   id="path40" />
<path
   fill="#fdfdff"
   opacity="1"
   stroke="none"
   d="m 431.00421,199.00546 c -0.0914,0.33002 -0.27521,0.59288 -0.76587,0.90195 -0.21866,0.10783 -0.23834,0.0923 -0.24646,0.0822 0.0875,-0.33662 0.2742,-0.59803 0.77435,-0.89645 0.22226,-0.10213 0.23365,-0.0932 0.23798,-0.0877 z"
   id="path41" />
<path
   fill="#fdfdff"
   opacity="1"
   stroke="none"
   d="m 433.00458,216.99408 c -0.12695,-0.13785 -0.25388,-0.27568 -0.38083,-0.41351 0.0874,0.0481 0.17477,0.0962 0.31918,0.2819 0.0571,0.13753 0.0616,0.13161 0.0616,0.13161 z"
   id="path42" />
<path
   fill="#fdfdff"
   opacity="1"
   stroke="none"
   d="m 432.99719,217.0022 c 0.1167,0.14277 0.23627,0.28335 0.35581,0.42392 -0.0842,-0.0507 -0.16837,-0.10138 -0.30051,-0.29206 C 433.00458,216.99408 433,217 432.99719,217.0022 Z"
   id="path43" />
<path
   fill="#f5f4fc"
   opacity="1"
   stroke="none"
   d="m 236.44073,350.0022 c -8.03294,-6.14911 -7.17565,-16.90885 2.32579,-22.6286 6.39272,-3.84827 13.7141,-6.42347 20.9121,-8.60404 12.23004,-3.70499 22.01736,-10.83334 30.16174,-20.25882 9.30185,-10.76504 18.57035,-21.61654 27.0037,-33.05679 7.2413,-9.82314 13.41091,-20.45152 19.81927,-30.86847 4.9523,-8.0501 9.33844,-16.45068 14.35214,-24.46016 4.32511,-6.90947 9.4859,-8.99785 16.62052,-7.28325 6.656,6.65221 5.18222,14.40082 3.85864,22.09726 -0.36398,2.11661 -0.98078,4.18974 -1.73132,6.68454 -0.24976,0.40172 -0.73157,0.40056 -1.10633,0.39542 -5.26504,1.80304 -10.06726,11.47282 -8.27188,16.06183 0.17432,0.44557 1.04288,0.61953 1.59183,1.17454 0.005,0.42494 0.008,0.59493 0.011,0.76489 -9.27533,19.46859 -22.40521,36.37557 -35.74121,53.08455 -7.1195,8.9202 -14.62841,17.61777 -22.72225,25.64923 -9.58951,9.51551 -20.36576,18.0871 -34.09705,20.32206 -9.33237,1.51901 -19.02907,0.80822 -28.56359,1.06643 -1.32548,0.0359 -2.65534,-0.0899 -4.42308,-0.14062 m 2.0419,-14.76181 c 0.35634,0.88488 0.7127,1.76974 1.06904,2.65463 3.33265,-1.40683 7.14267,-2.2287 9.83227,-4.42355 1.83214,-1.49509 0.12712,-4.12281 -2.43567,-3.29404 -2.85504,0.92325 -5.36162,2.92413 -8.46564,5.06296 z"
   id="path44" />
<path
   fill="#d0cef2"
   opacity="1"
   stroke="none"
   d="m 345.83142,349.66434 c 0.58322,10.55706 -5.24496,18.01724 -11.81055,24.53711 -8.92199,8.85983 -19.59091,15.46426 -32.14663,17.84637 -5.8667,1.11307 -12.02668,0.6803 -18.4863,0.9603 -0.43256,0.0122 -0.39587,-0.008 -0.48987,-0.2135 -0.28625,-0.4841 -0.54245,-0.67838 -0.86255,-0.78839 -4.36954,-6.58542 -1.52524,-12.89151 2.16834,-17.9581 12.96341,-17.7822 29.96389,-28.76728 52.85348,-27.90955 2.90567,0.10889 5.74103,2.09491 8.77408,3.52576 z"
   id="path45" />
<path
   fill="#d0cef2"
   opacity="1"
   stroke="none"
   d="m 375.91141,293.05014 c -6.08844,-2.54144 -8.41254,-7.65903 -8.86591,-13.70929 -1.1716,-15.63595 4.17297,-29.2209 13.45114,-41.53378 4.81211,-6.38603 10.65711,-10.7721 19.03675,-10.74308 0.31475,0.001 0.6289,0.18686 0.98086,0.76751 1.18488,5.55796 3.5492,10.70364 3.26752,15.70012 -1.17761,20.88699 -8.30939,38.80233 -27.87036,49.51852 z"
   id="path46" />
<path
   fill="#d0cef2"
   opacity="1"
   stroke="none"
   d="m 371.34494,186.16965 c -7.99832,-5.27722 -10.50177,-13.31909 -12.21179,-21.66272 -2.1301,-10.3931 -1.34525,-20.60677 2.35138,-30.64099 2.09128,-5.67659 5.19595,-10.25499 11.16897,-12.90245 0.34857,-0.0676 0.36014,0.003 0.50086,0.33641 17.18499,12.47793 18.29181,50.9205 3.78485,65.73693 -1.74787,-0.24124 -3.4957,-0.48246 -5.59427,-0.86718 z"
   id="path47" />
<path
   fill="#d0cef2"
   opacity="1"
   stroke="none"
   d="m 150.08612,404.87347 c -0.15421,0.16645 -0.6171,0.13593 -0.84886,0.12879 0.27418,-7.52298 4.16659,-12.18015 13.53654,-14.65286 9.39366,-2.47904 19.08428,-2.59348 28.23702,0.98651 3.07901,1.20434 5.29971,4.60302 7.93947,7.34887 -5.56847,8.26947 -13.80306,10.61982 -22.88082,11.33792 -8.44874,0.66831 -16.53418,-0.61618 -24.66716,-4.03949 -0.6429,-0.42688 -0.90243,-0.8515 -1.31619,-1.10974 z"
   id="path48" />
<path
   fill="#b5b5e6"
   opacity="1"
   stroke="none"
   d="m 376.18887,293.31494 c 19.28351,-10.98099 26.41529,-28.89633 27.5929,-49.78332 0.28168,-4.99648 -2.08264,-10.14216 -2.97031,-15.44509 7.64881,2.90192 9.04523,9.70058 8.99536,16.2997 -0.12988,17.18222 -6.35183,32.12595 -18.90753,44.06662 -3.90854,3.71704 -8.65793,6.13965 -14.71042,4.86209 z"
   id="path49" />
<path
   fill="#b5b5e6"
   opacity="1"
   stroke="none"
   d="m 377.31683,187.03035 c 14.12934,-14.80995 13.02252,-53.25252 -4.16183,-65.69469 5.19281,-0.69296 9.22369,1.53511 11.9881,5.98669 6.53823,10.52885 9.2839,22.04107 7.01544,34.21126 -1.24805,6.69564 -3.56113,13.346 -6.47309,19.50678 -1.25695,2.65938 -5.24407,4.02832 -8.36862,5.98996 z"
   id="path50" />
<path
   fill="#d1cff2"
   opacity="1"
   stroke="none"
   d="m 331.19949,309.32388 c 4.36744,-3.74798 8.34977,-7.40924 12.69544,-10.57098 1.11548,-0.81156 3.96576,-0.70172 4.94458,0.17899 0.95279,0.85726 1.11145,3.44119 0.61093,4.92764 -2.55728,7.59491 -7.7222,13.05566 -15.01175,16.27285 -1.55331,0.68546 -4.16501,0.68009 -5.42157,-0.2192 -0.97437,-0.6973 -1.05087,-3.38221 -0.70047,-5.00528 0.4043,-1.87268 1.71548,-3.54956 2.88284,-5.58402 z"
   id="path51" />
<path
   fill="#d1d0f3"
   opacity="1"
   stroke="none"
   d="m 369.03174,232.02443 c 0,0 0.48181,0.001 0.72265,0.005 1.7945,7.47583 -1.49493,15.61247 -7.39422,17.98001 -0.37503,-0.1589 -0.37778,-0.32889 -0.0986,-0.95599 2.44467,-5.98111 4.60742,-11.50508 6.77014,-17.02907 z"
   id="path52" />
<path
   fill="#d1d0f3"
   opacity="1"
   stroke="none"
   d="m 394.99713,193.9357 c 0.73801,-2.76514 1.47546,-5.1299 2.4578,-8.27992 3.46759,5.1829 2.71649,9.68032 -1.76819,13.12091 -0.26557,-1.70871 -0.47788,-3.07466 -0.68961,-4.84099 z"
   id="path53" />
<path
   fill="#fdfdff"
   opacity="1"
   stroke="none"
   d="m 413.00107,197.99878 c -0.12171,-0.13886 -0.24338,-0.2777 -0.36508,-0.41655 0.0851,0.0482 0.1701,0.0964 0.30957,0.2812 0.0544,0.13657 0.0555,0.13535 0.0555,0.13535 z"
   id="path54" />
<path
   fill="#fdfdff"
   opacity="1"
   stroke="none"
   d="m 412.99939,198.00034 c 0.32275,0.10069 0.58463,0.2873 0.89282,0.7799 0.10779,0.21976 0.10657,0.22159 0.10657,0.22159 -0.32666,-0.0965 -0.58914,-0.2831 -0.89261,-0.78149 -0.1051,-0.22156 -0.10617,-0.22034 -0.10678,-0.22 z"
   id="path55" />
<path
   fill="#b4b4e6"
   opacity="1"
   stroke="none"
   d="m 282.12555,392.23624 c 0.23007,-0.12 0.48627,0.0743 0.77624,0.57754 -0.23852,0.13657 -0.49981,-0.0542 -0.77624,-0.57754 z"
   id="path56" />
<path
   fill="#fdfdff"
   opacity="1"
   stroke="none"
   d="m 414.99634,200.00302 c -0.32843,-0.0959 -0.58963,-0.28335 -0.89243,-0.78026 C 413.99878,199.00183 414,199 414.00085,198.9993 c 0.32328,0.0998 0.58515,0.28557 0.89569,0.77487 0.1092,0.2182 0.10346,0.22583 0.0998,0.22885 z"
   id="path57" />
<path
   fill="#fdfdff"
   opacity="1"
   stroke="none"
   d="m 412.53021,218.5462 c -0.0547,0.0325 0.0547,-0.0325 0,0 z"
   id="path58" />
<path
   fill="#d1cff2"
   opacity="1"
   stroke="none"
   d="m 298.18414,263.64362 c 0.0813,-3.04932 -0.14596,-6.05964 0.88516,-8.5486 3.08667,-7.4506 9.03702,-12.51973 15.66388,-16.7307 1.32529,-0.84212 3.92814,-1.26277 4.96994,-0.51808 1.05631,0.75505 1.34546,3.22882 1.21347,4.88965 -0.5838,7.34483 -12.57754,20.61863 -19.76504,21.99638 -0.81836,0.15683 -1.79669,-0.52069 -2.96741,-1.08865 z"
   id="path59" />
<path
   fill="#d1cff2"
   opacity="1"
   stroke="none"
   d="m 158.33691,350.56619 c -2.29361,-3.2399 -1.66383,-5.52524 1.60581,-7.03677 7.45564,-3.44675 15.09045,-3.5668 22.62628,-0.57828 1.74792,0.69318 3.93442,2.87467 3.99661,4.44739 0.0551,1.39224 -2.30729,3.46207 -4.04683,4.24374 -8.01576,3.60184 -16.04838,3.33768 -24.18187,-1.07608 z"
   id="path60" />
<path
   fill="#d1cff2"
   opacity="1"
   stroke="none"
   d="m 341.89233,161.71443 c 0.18933,-5.00868 0.22571,-9.70555 1.10529,-14.23881 0.26282,-1.35444 2.82858,-2.9903 4.44415,-3.11272 1.1915,-0.0903 2.94196,1.84315 3.76847,3.26674 2.76205,4.75732 1.90908,9.63086 -0.70151,14.09747 -2.46256,4.21326 -5.01044,4.17917 -8.6164,-0.0127 z"
   id="path61" />
<path
   fill="#d1d0f3"
   opacity="1"
   stroke="none"
   d="m 127.44745,330.10315 c 3.51855,-0.0322 6.89091,-0.63602 8.38028,3.27316 -2.59111,0.87641 -5.14464,2.26779 -7.78565,2.46057 -1.98668,0.14496 -4.08561,-1.24792 -6.13458,-1.9562 0.0848,-0.59143 0.1696,-1.1829 0.25441,-1.77436 1.62616,-0.64987 3.25232,-1.29974 5.28554,-2.00317 z"
   id="path62" />
<path
   fill="#d1d0f3"
   opacity="1"
   stroke="none"
   d="m 335.22989,71.180405 c 0.151,-3.282219 0.42035,-6.179505 0.7604,-9.837307 4.31833,3.271709 5.08902,9.10387 2.38294,11.358753 -0.40881,0.340645 -1.98746,-0.722641 -3.14334,-1.521446 z"
   id="path63" />
<path
   fill="#d1cff2"
   opacity="1"
   stroke="none"
   d="m 147.94966,173.63022 c -8.50593,1.91963 -16.68358,4.79182 -23.84782,10.28897 -14.69116,11.2726 -24.840205,25.55344 -26.743907,44.18721 -0.609276,5.96376 2.57299,12.31489 3.819317,18.70549 -7.144108,-2.20145 -11.70438,-8.85725 -12.22221,-16.48265 -0.882095,-12.98938 3.669197,-24.17938 11.12007,-34.35974 9.21586,-12.59191 20.7191,-22.0864 36.74291,-24.24205 3.49892,-0.47072 7.26082,1.01359 11.13164,1.90277 z"
   id="path64" />
<path
   fill="#dedffb"
   opacity="1"
   stroke="none"
   d="m 265.05496,75.990677 c 0.97748,1.749252 2.78913,3.49472 2.79706,5.248367 0.0516,11.38015 -15.61229,22.113156 -26.61328,17.591599 0.41952,-4.229233 0.15678,-8.31128 1.91456,-11.135964 4.90696,-7.885177 12.09662,-12.496383 21.90166,-11.704002 z"
   id="path65" />
<path
   fill="#e9e7fc"
   opacity="1"
   stroke="none"
   d="m 103.37556,175.77469 c -3.22895,0.001 -6.121623,-0.18971 -9.014301,-0.3806 0.910935,-2.99509 1.204201,-6.42346 2.912774,-8.859 1.593757,-2.27183 4.519687,-3.91217 7.196727,-4.99948 1.44545,-0.58709 4.072,0.0342 5.27454,1.10813 0.89649,0.80064 1.0481,3.61053 0.33199,4.80885 -1.75168,2.93121 -4.19845,5.44705 -6.70173,8.3221 z"
   id="path66" />
<path
   fill="#e9e7fc"
   opacity="1"
   stroke="none"
   d="m 173.34227,141.34216 c 3.07756,3.64922 1.41183,6.67668 -1.22174,8.83916 -2.49175,2.04602 -5.55364,3.63478 -8.62132,4.64735 -1.65917,0.54764 -5.26761,-0.10293 -5.52599,-0.95883 -0.61542,-2.03859 -0.53601,-5.07702 0.64421,-6.71803 3.41045,-4.74205 8.26964,-7.10254 14.72484,-5.80965 z"
   id="path67" />
<path
   fill="#d1d0f3"
   opacity="1"
   stroke="none"
   d="m 264.84967,75.652481 c -9.59975,-0.454185 -16.78941,4.157021 -21.69637,12.042198 -1.75778,2.824684 -1.49504,6.906731 -2.15342,10.854424 -4.46587,-2.006829 -3.41985,-5.995354 -2.42147,-9.584778 2.63688,-9.48024 14.32863,-16.612877 23.99352,-14.862396 0.73972,0.133972 1.38388,0.795852 2.27774,1.550552 z"
   id="path68" />
<path
   fill="#e9e7fc"
   opacity="1"
   stroke="none"
   d="m 202.0574,96.333618 c -3.26286,0.861138 -6.2182,1.492706 -9.76878,2.25148 2.09177,-5.529396 8.33,-8.178894 15.12508,-6.679916 -1.9957,1.659744 -3.52224,2.929298 -5.3563,4.428436 z"
   id="path69" />
<path
   fill="#e9e7fc"
   opacity="1"
   stroke="none"
   d="m 120.265,153.11005 c 1.36942,0.54444 2.37421,1.15004 3.379,1.75563 -1.32788,1.5688 -2.46852,3.38499 -4.0677,4.59527 -0.72915,0.55185 -2.41865,0.0712 -3.54925,-0.30838 -0.28635,-0.0961 -0.46948,-1.90982 -0.0603,-2.39725 1.13033,-1.34654 2.59882,-2.40921 4.29825,-3.64527 z"
   id="path70" />
<path
   fill="#e9e7fc"
   opacity="1"
   stroke="none"
   d="m 368.65698,232.01929 c -1.78796,5.52913 -3.95071,11.0531 -6.39807,16.77923 -0.83093,-0.0979 -1.69949,-0.27183 -1.87381,-0.7174 -1.79538,-4.58901 3.00684,-14.25879 8.27188,-16.06183 z"
   id="path71" />
<path
   fill="#e9e7fc"
   opacity="1"
   stroke="none"
   d="m 238.7055,334.93686 c 2.88115,-1.8353 5.38773,-3.83618 8.24277,-4.75943 2.56279,-0.82877 4.26781,1.79895 2.43567,3.29404 -2.6896,2.19485 -6.49962,3.01672 -9.83227,4.42355 -0.35634,-0.88489 -0.7127,-1.76975 -0.84617,-2.95816 z"
   id="path72" />
</svg>
